<svg xmlns="http://www.w3.org/2000/svg" width="800" height="700"><rect width="800" height="700" x="0" y="0" fill="#FFFFFF" id="backgorund"/><g transform="translate(50,60)" id="visualization"><g><rect x="701" y="126" height="173.1428571428571" width="-1" fill="black"><title>Europa: 76</title></rect><rect x="701" y="306.1428571428571" height="88.8496240601504" width="-1" fill="black"><title>Austria-Ungheria: 39</title></rect><rect x="0" y="0" height="36.45112781954887" width="-1" fill="black"><title>Lana 39011 BZ: 16</title></rect><rect x="0" y="43.45112781954887" height="29.616541353383468" width="-1" fill="black"><title>Palù di Giovo: 13</title></rect><rect x="701" y="401.9924812030075" height="27.338345864661676" width="-1" fill="black"><title>Austria: 12</title></rect><rect x="0" y="80.06766917293234" height="20.503759398496243" width="-1" fill="black"><title>Baselga di Piné: 9</title></rect><rect x="0" y="107.57142857142858" height="20.503759398496243" width="-1" fill="black"><title>Sover: 9</title></rect><rect x="0" y="135.07518796992483" height="18.225563909774422" width="-1" fill="black"><title>Pergine Valsugana: 8</title></rect><rect x="0" y="160.30075187969925" height="18.22556390977445" width="-1" fill="black"><title>Trento: 8</title></rect><rect x="0" y="185.5263157894737" height="11.390977443609017" width="-1" fill="black"><title>Vigolo Vattaro: 5</title></rect><rect x="0" y="203.91729323308272" height="11.390977443609017" width="-1" fill="black"><title>Segonzano: 5</title></rect><rect x="0" y="222.30827067669173" height="9.112781954887225" width="-1" fill="black"><title>Civezzano: 4</title></rect><rect x="0" y="238.42105263157896" height="9.112781954887225" width="-1" fill="black"><title>Miola: 4</title></rect><rect x="0" y="254.53383458646618" height="6.834586466165376" width="-1" fill="black"><title>Fai della Paganella: 3</title></rect><rect x="0" y="268.36842105263156" height="6.834586466165433" width="-1" fill="black"><title>Ischia: 3</title></rect><rect x="0" y="282.203007518797" height="6.834586466165433" width="-1" fill="black"><title>Lavis: 3</title></rect><rect x="0" y="296.0375939849624" height="6.834586466165433" width="-1" fill="black"><title>Meano: 3</title></rect><rect x="0" y="309.87218045112786" height="6.834586466165433" width="-1" fill="black"><title>Andalo: 3</title></rect><rect x="701" y="436.3308270676692" height="6.834586466165433" width="-1" fill="black"><title>Germania: 3</title></rect><rect x="0" y="323.7067669172933" height="4.556390977443584" width="-1" fill="black"><title>Grumo: 2</title></rect><rect x="0" y="335.2631578947369" height="4.556390977443584" width="-1" fill="black"><title>Lasino: 2</title></rect><rect x="0" y="346.81954887218046" height="4.556390977443584" width="-1" fill="black"><title>Mezzocorona: 2</title></rect><rect x="0" y="358.37593984962405" height="4.556390977443584" width="-1" fill="black"><title>Ravina: 2</title></rect><rect x="0" y="369.93233082706763" height="4.556390977443584" width="-1" fill="black"><title>Sopramonte: 2</title></rect><rect x="0" y="381.4887218045112" height="4.556390977443584" width="-1" fill="black"><title>Villazzano: 2</title></rect><rect x="0" y="393.0451127819548" height="4.556390977443584" width="-1" fill="black"><title>Bedollo: 2</title></rect><rect x="0" y="404.6015037593984" height="4.556390977443584" width="-1" fill="black"><title>Calavino: 2</title></rect><rect x="0" y="416.15789473684197" height="4.556390977443584" width="-1" fill="black"><title>Toss: 2</title></rect><rect x="0" y="427.71428571428555" height="4.556390977443584" width="-1" fill="black"><title>Vezzano: 2</title></rect><rect x="701" y="450.1654135338346" height="4.556390977443584" width="-1" fill="black"><title>Italia: 2</title></rect><rect x="701" y="461.7218045112782" height="2.278195488721792" width="-1" fill="black"><title>America: 1</title></rect><rect x="0" y="439.27067669172914" height="2.278195488721792" width="-1" fill="black"><title>Albiano: 1</title></rect><rect x="0" y="448.5488721804509" height="2.278195488721792" width="-1" fill="black"><title>Denno: 1</title></rect><rect x="0" y="457.8270676691727" height="2.278195488721792" width="-1" fill="black"><title>Fierozzo: 1</title></rect><rect x="0" y="467.1052631578945" height="2.278195488721792" width="-1" fill="black"><title>Povo: 1</title></rect><rect x="0" y="476.3834586466163" height="2.278195488721792" width="-1" fill="black"><title>Campo Lomaso Comano Terme TN, Italia: 1</title></rect><rect x="0" y="485.6616541353381" height="2.278195488721792" width="-1" fill="black"><title>Fornace: 1</title></rect><rect x="0" y="494.9398496240599" height="2.278195488721792" width="-1" fill="black"><title>Fraveggio: 1</title></rect><rect x="0" y="504.2180451127817" height="2.278195488721792" width="-1" fill="black"><title>Gardolo: 1</title></rect><rect x="0" y="513.4962406015035" height="2.2781954887217353" width="-1" fill="black"><title>Localita' Foss, 2, 38029 Vermiglio TN: 1</title></rect><rect x="0" y="522.7744360902252" height="2.278195488721849" width="-1" fill="black"><title>Madrano: 1</title></rect><rect x="0" y="532.0526315789471" height="2.278195488721849" width="-1" fill="black"><title>Mezzolombardo: 1</title></rect><rect x="0" y="541.3308270676689" height="2.278195488721849" width="-1" fill="black"><title>Nogaré: 1</title></rect><rect x="0" y="550.6090225563908" height="2.278195488721849" width="-1" fill="black"><title>Romagnano: 1</title></rect><rect x="0" y="559.8872180451126" height="2.278195488721849" width="-1" fill="black"><title>Santa Massenza: 1</title></rect><rect x="0" y="569.1654135338345" height="2.278195488721849" width="-1" fill="black"><title>Tenna: 1</title></rect><rect x="0" y="578.4436090225563" height="2.278195488721849" width="-1" fill="black"><title>Terlago: 1</title></rect><rect x="0" y="587.7218045112782" height="2.278195488721849" width="-1" fill="black"><title>Verlago: 1</title></rect></g><g fill="none" stroke-opacity="0.6"><g style="mix-blend-mode: normal;"><path d="M-1,195.7781954887218C350,195.7781954887218,350,462.86090225563913,701,462.86090225563913" stroke="rgb(84, 93, 168)" stroke-width="2.2781954887218046"/><title>Vigolo Vattaro → America: 1</title></g><g style="mix-blend-mode: normal;"><path d="M-1,97.15413533834587C350,97.15413533834587,350,407.687969924812,701,407.687969924812" stroke="rgb(184, 30, 72)" stroke-width="2.2781954887218046"/><title>Baselga di Piné → Austria: 1</title></g><g style="mix-blend-mode: normal;"><path d="M-1,229.1428571428571C350,229.1428571428571,350,427.0526315789472,701,427.0526315789472" stroke="rgb(226, 84, 73)" stroke-width="4.556390977443609"/><title>Civezzano → Austria: 2</title></g><g style="mix-blend-mode: normal;"><path d="M-1,34.17293233082707C350,34.17293233082707,350,404.2706766917293,701,404.2706766917293" stroke="rgb(254, 206, 125)" stroke-width="4.556390977443609"/><title>Lana 39011 BZ → Austria: 2</title></g><g style="mix-blend-mode: normal;"><path d="M-1,151.02255639097746C350,151.02255639097746,350,413.3834586466165,701,413.3834586466165" stroke="rgb(208, 236, 158)" stroke-width="4.556390977443609"/><title>Pergine Valsugana → Austria: 2</title></g><g style="mix-blend-mode: normal;"><path d="M-1,126.93609022556393C350,126.93609022556393,350,409.9661654135338,701,409.9661654135338" stroke="rgb(102, 187, 169)" stroke-width="2.2781954887218046"/><title>Sover → Austria: 1</title></g><g style="mix-blend-mode: normal;"><path d="M-1,173.96992481203006C350,173.96992481203006,350,417.93984962406006,701,417.93984962406006" stroke="rgb(66, 135, 180)" stroke-width="4.556390977443609"/><title>Trento → Austria: 2</title></g><g style="mix-blend-mode: normal;"><path d="M-1,190.08270676691728C350,190.08270676691728,350,422.49624060150364,701,422.49624060150364" stroke="rgb(84, 93, 168)" stroke-width="4.556390977443609"/><title>Vigolo Vattaro → Austria: 2</title></g><g style="mix-blend-mode: normal;"><path d="M-1,440.40977443609006C350,440.40977443609006,350,387.01879699248093,701,387.01879699248093" stroke="rgb(158, 1, 66)" stroke-width="2.2781954887218046"/><title>Albiano → Austria-Ungheria: 1</title></g><g style="mix-blend-mode: normal;"><path d="M-1,94.87593984962406C350,94.87593984962406,350,323.22932330827064,701,323.22932330827064" stroke="rgb(184, 30, 72)" stroke-width="2.2781954887218046"/><title>Baselga di Piné → Austria-Ungheria: 1</title></g><g style="mix-blend-mode: normal;"><path d="M-1,225.72556390977442C350,225.72556390977442,350,350.56766917293226,701,350.56766917293226" stroke="rgb(226, 84, 73)" stroke-width="2.2781954887218046"/><title>Civezzano → Austria-Ungheria: 1</title></g><g style="mix-blend-mode: normal;"><path d="M-1,449.68796992481185C350,449.68796992481185,350,389.2969924812027,701,389.2969924812027" stroke="rgb(234, 96, 73)" stroke-width="2.2781954887218046"/><title>Denno → Austria-Ungheria: 1</title></g><g style="mix-blend-mode: normal;"><path d="M-1,259.09022556390977C350,259.09022556390977,350,356.2631578947367,701,356.2631578947367" stroke="rgb(239, 109, 74)" stroke-width="4.556390977443609"/><title>Fai della Paganella → Austria-Ungheria: 2</title></g><g style="mix-blend-mode: normal;"><path d="M-1,458.96616541353364C350,458.96616541353364,350,391.5751879699245,701,391.5751879699245" stroke="rgb(244, 123, 77)" stroke-width="2.2781954887218046"/><title>Fierozzo → Austria-Ungheria: 1</title></g><g style="mix-blend-mode: normal;"><path d="M-1,325.9849624060151C350,325.9849624060151,350,369.93233082706746,701,369.93233082706746" stroke="rgb(252, 181, 105)" stroke-width="4.556390977443609"/><title>Grumo → Austria-Ungheria: 2</title></g><g style="mix-blend-mode: normal;"><path d="M-1,272.92481203007515C350,272.92481203007515,350,360.8195488721803,701,360.8195488721803" stroke="rgb(253, 194, 115)" stroke-width="4.556390977443609"/><title>Ischia → Austria-Ungheria: 2</title></g><g style="mix-blend-mode: normal;"><path d="M-1,29.61654135338346C350,29.61654135338346,350,308.4210526315789,701,308.4210526315789" stroke="rgb(254, 206, 125)" stroke-width="4.556390977443609"/><title>Lana 39011 BZ → Austria-Ungheria: 2</title></g><g style="mix-blend-mode: normal;"><path d="M-1,338.6804511278196C350,338.6804511278196,350,373.3496240601502,701,373.3496240601502" stroke="rgb(254, 217, 136)" stroke-width="2.2781954887218046"/><title>Lasino → Austria-Ungheria: 1</title></g><g style="mix-blend-mode: normal;"><path d="M-1,287.8984962406015C350,287.8984962406015,350,364.236842105263,701,364.236842105263" stroke="rgb(254, 227, 148)" stroke-width="2.2781954887218046"/><title>Lavis → Austria-Ungheria: 1</title></g><g style="mix-blend-mode: normal;"><path d="M-1,301.73308270676694C350,301.73308270676694,350,366.5150375939848,701,366.5150375939848" stroke="rgb(252, 247, 174)" stroke-width="2.2781954887218046"/><title>Meano → Austria-Ungheria: 1</title></g><g style="mix-blend-mode: normal;"><path d="M-1,350.2368421052632C350,350.2368421052632,350,375.62781954887197,701,375.62781954887197" stroke="rgb(249, 249, 176)" stroke-width="2.2781954887218046"/><title>Mezzocorona → Austria-Ungheria: 1</title></g><g style="mix-blend-mode: normal;"><path d="M-1,246.39473684210526C350,246.39473684210526,350,352.84586466165405,701,352.84586466165405" stroke="rgb(238, 248, 168)" stroke-width="2.2781954887218046"/><title>Miola → Austria-Ungheria: 1</title></g><g style="mix-blend-mode: normal;"><path d="M-1,67.37218045112782C350,67.37218045112782,350,316.3947368421052,701,316.3947368421052" stroke="rgb(220, 241, 159)" stroke-width="11.390977443609023"/><title>Palù di Giovo → Austria-Ungheria: 5</title></g><g style="mix-blend-mode: normal;"><path d="M-1,146.46616541353384C350,146.46616541353384,350,335.7593984962405,701,335.7593984962405" stroke="rgb(208, 236, 158)" stroke-width="4.556390977443609"/><title>Pergine Valsugana → Austria-Ungheria: 2</title></g><g style="mix-blend-mode: normal;"><path d="M-1,468.24436090225544C350,468.24436090225544,350,393.8533834586463,701,393.8533834586463" stroke="rgb(195, 231, 159)" stroke-width="2.2781954887218046"/><title>Povo → Austria-Ungheria: 1</title></g><g style="mix-blend-mode: normal;"><path d="M-1,361.79323308270676C350,361.79323308270676,350,377.90601503759376,701,377.90601503759376" stroke="rgb(180, 225, 161)" stroke-width="2.2781954887218046"/><title>Ravina → Austria-Ungheria: 1</title></g><g style="mix-blend-mode: normal;"><path d="M-1,210.75187969924812C350,210.75187969924812,350,347.15037593984954,701,347.15037593984954" stroke="rgb(133, 205, 165)" stroke-width="4.556390977443609"/><title>Segonzano → Austria-Ungheria: 2</title></g><g style="mix-blend-mode: normal;"><path d="M-1,373.34962406015035C350,373.34962406015035,350,380.18421052631555,701,380.18421052631555" stroke="rgb(117, 197, 167)" stroke-width="2.2781954887218046"/><title>Sopramonte → Austria-Ungheria: 1</title></g><g style="mix-blend-mode: normal;"><path d="M-1,121.24060150375942C350,121.24060150375942,350,328.9248120300751,701,328.9248120300751" stroke="rgb(102, 187, 169)" stroke-width="9.112781954887218"/><title>Sover → Austria-Ungheria: 4</title></g><g style="mix-blend-mode: normal;"><path d="M-1,168.27443609022558C350,168.27443609022558,350,341.45488721804503,701,341.45488721804503" stroke="rgb(66, 135, 180)" stroke-width="6.834586466165414"/><title>Trento → Austria-Ungheria: 3</title></g><g style="mix-blend-mode: normal;"><path d="M-1,383.766917293233C350,383.766917293233,350,383.6015037593982,701,383.6015037593982" stroke="rgb(94, 79, 162)" stroke-width="4.556390977443609"/><title>Villazzano → Austria-Ungheria: 2</title></g><g style="mix-blend-mode: normal;"><path d="M-1,313.2894736842106C350,313.2894736842106,350,241.0488721804511,701,241.0488721804511" stroke="rgb(171, 16, 69)" stroke-width="6.834586466165414"/><title>Andalo → Europa: 3</title></g><g style="mix-blend-mode: normal;"><path d="M-1,86.90225563909776C350,86.90225563909776,350,178.39849624060147,701,178.39849624060147" stroke="rgb(184, 30, 72)" stroke-width="13.669172932330827"/><title>Baselga di Piné → Europa: 6</title></g><g style="mix-blend-mode: normal;"><path d="M-1,395.3233082706766C350,395.3233082706766,350,255.85714285714275,701,255.85714285714275" stroke="rgb(197, 45, 74)" stroke-width="4.556390977443609"/><title>Bedollo → Europa: 2</title></g><g style="mix-blend-mode: normal;"><path d="M-1,406.8796992481202C350,406.8796992481202,350,260.41353383458636,701,260.41353383458636" stroke="rgb(208, 58, 75)" stroke-width="4.556390977443609"/><title>Calavino → Europa: 2</title></g><g style="mix-blend-mode: normal;"><path d="M-1,477.52255639097723C350,477.52255639097723,350,270.66541353383445,701,270.66541353383445" stroke="rgb(218, 71, 74)" stroke-width="2.2781954887218046"/><title>Campo Lomaso Comano Terme TN, Italia → Europa: 1</title></g><g style="mix-blend-mode: normal;"><path d="M-1,223.44736842105263C350,223.44736842105263,350,215.98872180451127,701,215.98872180451127" stroke="rgb(226, 84, 73)" stroke-width="2.2781954887218046"/><title>Civezzano → Europa: 1</title></g><g style="mix-blend-mode: normal;"><path d="M-1,255.67293233082708C350,255.67293233082708,350,225.10150375939847,701,225.10150375939847" stroke="rgb(239, 109, 74)" stroke-width="2.2781954887218046"/><title>Fai della Paganella → Europa: 1</title></g><g style="mix-blend-mode: normal;"><path d="M-1,486.800751879699C350,486.800751879699,350,272.94360902255625,701,272.94360902255625" stroke="rgb(247, 138, 82)" stroke-width="2.2781954887218046"/><title>Fornace → Europa: 1</title></g><g style="mix-blend-mode: normal;"><path d="M-1,496.0789473684208C350,496.0789473684208,350,275.22180451127804,701,275.22180451127804" stroke="rgb(250, 153, 88)" stroke-width="2.2781954887218046"/><title>Fraveggio → Europa: 1</title></g><g style="mix-blend-mode: normal;"><path d="M-1,505.3571428571426C350,505.3571428571426,350,277.49999999999983,701,277.49999999999983" stroke="rgb(251, 167, 96)" stroke-width="2.2781954887218046"/><title>Gardolo → Europa: 1</title></g><g style="mix-blend-mode: normal;"><path d="M-1,269.5075187969925C350,269.5075187969925,350,227.37969924812026,701,227.37969924812026" stroke="rgb(253, 194, 115)" stroke-width="2.2781954887218046"/><title>Ischia → Europa: 1</title></g><g style="mix-blend-mode: normal;"><path d="M-1,13.669172932330827C350,13.669172932330827,350,139.66917293233084,701,139.66917293233084" stroke="rgb(254, 206, 125)" stroke-width="27.338345864661655"/><title>Lana 39011 BZ → Europa: 12</title></g><g style="mix-blend-mode: normal;"><path d="M-1,336.4022556390978C350,336.4022556390978,350,245.60526315789468,701,245.60526315789468" stroke="rgb(254, 217, 136)" stroke-width="2.2781954887218046"/><title>Lasino → Europa: 1</title></g><g style="mix-blend-mode: normal;"><path d="M-1,284.4812030075188C350,284.4812030075188,350,230.79699248120295,701,230.79699248120295" stroke="rgb(254, 227, 148)" stroke-width="4.556390977443609"/><title>Lavis → Europa: 2</title></g><g style="mix-blend-mode: normal;"><path d="M-1,514.6353383458644C350,514.6353383458644,350,279.7781954887216,701,279.7781954887216" stroke="rgb(254, 235, 159)" stroke-width="2.2781954887218046"/><title>Localita' Foss, 2, 38029 Vermiglio TN → Europa: 1</title></g><g style="mix-blend-mode: normal;"><path d="M-1,523.9135338345861C350,523.9135338345861,350,282.0563909774434,701,282.0563909774434" stroke="rgb(254, 242, 168)" stroke-width="2.2781954887218046"/><title>Madrano → Europa: 1</title></g><g style="mix-blend-mode: normal;"><path d="M-1,298.3157894736842C350,298.3157894736842,350,235.35338345864656,701,235.35338345864656" stroke="rgb(252, 247, 174)" stroke-width="4.556390977443609"/><title>Meano → Europa: 2</title></g><g style="mix-blend-mode: normal;"><path d="M-1,347.9586466165414C350,347.9586466165414,350,247.88345864661648,701,247.88345864661648" stroke="rgb(249, 249, 176)" stroke-width="2.2781954887218046"/><title>Mezzocorona → Europa: 1</title></g><g style="mix-blend-mode: normal;"><path d="M-1,533.191729323308C350,533.191729323308,350,284.3345864661652,701,284.3345864661652" stroke="rgb(244, 249, 173)" stroke-width="2.2781954887218046"/><title>Mezzolombardo → Europa: 1</title></g><g style="mix-blend-mode: normal;"><path d="M-1,241.83834586466168C350,241.83834586466168,350,220.54511278195488,701,220.54511278195488" stroke="rgb(238, 248, 168)" stroke-width="6.834586466165414"/><title>Miola → Europa: 3</title></g><g style="mix-blend-mode: normal;"><path d="M-1,542.4699248120298C350,542.4699248120298,350,286.612781954887,701,286.612781954887" stroke="rgb(230, 245, 163)" stroke-width="2.2781954887218046"/><title>Nogaré → Europa: 1</title></g><g style="mix-blend-mode: normal;"><path d="M-1,52.56390977443609C350,52.56390977443609,350,162.45112781954887,701,162.45112781954887" stroke="rgb(220, 241, 159)" stroke-width="18.225563909774436"/><title>Palù di Giovo → Europa: 8</title></g><g style="mix-blend-mode: normal;"><path d="M-1,139.63157894736844C350,139.63157894736844,350,198.90225563909775,701,198.90225563909775" stroke="rgb(208, 236, 158)" stroke-width="9.112781954887218"/><title>Pergine Valsugana → Europa: 4</title></g><g style="mix-blend-mode: normal;"><path d="M-1,359.51503759398497C350,359.51503759398497,350,250.16165413533827,701,250.16165413533827" stroke="rgb(180, 225, 161)" stroke-width="2.2781954887218046"/><title>Ravina → Europa: 1</title></g><g style="mix-blend-mode: normal;"><path d="M-1,551.7481203007517C350,551.7481203007517,350,288.8909774436088,701,288.8909774436088" stroke="rgb(165, 219, 163)" stroke-width="2.2781954887218046"/><title>Romagnano → Europa: 1</title></g><g style="mix-blend-mode: normal;"><path d="M-1,561.0263157894735C350,561.0263157894735,350,291.1691729323306,701,291.1691729323306" stroke="rgb(149, 212, 164)" stroke-width="2.2781954887218046"/><title>Santa Massenza → Europa: 1</title></g><g style="mix-blend-mode: normal;"><path d="M-1,206.1954887218045C350,206.1954887218045,350,212.57142857142856,701,212.57142857142856" stroke="rgb(133, 205, 165)" stroke-width="4.556390977443609"/><title>Segonzano → Europa: 2</title></g><g style="mix-blend-mode: normal;"><path d="M-1,371.07142857142856C350,371.07142857142856,350,252.43984962406006,701,252.43984962406006" stroke="rgb(117, 197, 167)" stroke-width="2.2781954887218046"/><title>Sopramonte → Europa: 1</title></g><g style="mix-blend-mode: normal;"><path d="M-1,112.1278195488722C350,112.1278195488722,350,189.78947368421052,701,189.78947368421052" stroke="rgb(102, 187, 169)" stroke-width="9.112781954887218"/><title>Sover → Europa: 4</title></g><g style="mix-blend-mode: normal;"><path d="M-1,570.3045112781954C350,570.3045112781954,350,293.4473684210524,701,293.4473684210524" stroke="rgb(88, 175, 173)" stroke-width="2.2781954887218046"/><title>Tenna → Europa: 1</title></g><g style="mix-blend-mode: normal;"><path d="M-1,579.5827067669172C350,579.5827067669172,350,295.72556390977417,701,295.72556390977417" stroke="rgb(77, 162, 177)" stroke-width="2.2781954887218046"/><title>Terlago → Europa: 1</title></g><g style="mix-blend-mode: normal;"><path d="M-1,418.43609022556376C350,418.43609022556376,350,264.96992481202994,701,264.96992481202994" stroke="rgb(69, 149, 180)" stroke-width="4.556390977443609"/><title>Toss → Europa: 2</title></g><g style="mix-blend-mode: normal;"><path d="M-1,162.57894736842104C350,162.57894736842104,350,205.73684210526315,701,205.73684210526315" stroke="rgb(66, 135, 180)" stroke-width="4.556390977443609"/><title>Trento → Europa: 2</title></g><g style="mix-blend-mode: normal;"><path d="M-1,588.8609022556391C350,588.8609022556391,350,298.00375939849596,701,298.00375939849596" stroke="rgb(68, 121, 178)" stroke-width="2.2781954887218046"/><title>Verlago → Europa: 1</title></g><g style="mix-blend-mode: normal;"><path d="M-1,428.8533834586465C350,428.8533834586465,350,268.38721804511266,701,268.38721804511266" stroke="rgb(74, 107, 174)" stroke-width="2.2781954887218046"/><title>Vezzano → Europa: 1</title></g><g style="mix-blend-mode: normal;"><path d="M-1,186.6654135338346C350,186.6654135338346,350,209.15413533834587,701,209.15413533834587" stroke="rgb(84, 93, 168)" stroke-width="2.2781954887218046"/><title>Vigolo Vattaro → Europa: 1</title></g><g style="mix-blend-mode: normal;"><path d="M-1,99.43233082706767C350,99.43233082706767,350,437.4699248120301,701,437.4699248120301" stroke="rgb(184, 30, 72)" stroke-width="2.2781954887218046"/><title>Baselga di Piné → Germania: 1</title></g><g style="mix-blend-mode: normal;"><path d="M-1,214.16917293233084C350,214.16917293233084,350,442.0263157894737,701,442.0263157894737" stroke="rgb(133, 205, 165)" stroke-width="2.2781954887218046"/><title>Segonzano → Germania: 1</title></g><g style="mix-blend-mode: normal;"><path d="M-1,193.5C350,193.5,350,439.7481203007519,701,439.7481203007519" stroke="rgb(84, 93, 168)" stroke-width="2.2781954887218046"/><title>Vigolo Vattaro → Germania: 1</title></g><g style="mix-blend-mode: normal;"><path d="M-1,177.38721804511277C350,177.38721804511277,350,451.30451127819555,701,451.30451127819555" stroke="rgb(66, 135, 180)" stroke-width="2.2781954887218046"/><title>Trento → Italia: 1</title></g><g style="mix-blend-mode: normal;"><path d="M-1,431.13157894736827C350,431.13157894736827,350,453.58270676691734,701,453.58270676691734" stroke="rgb(74, 107, 174)" stroke-width="2.2781954887218046"/><title>Vezzano → Italia: 1</title></g></g><g><text x="697" y="212.57142857142856" text-anchor="end"><tspan alignment-baseline="middle" x="697" style="font-family: Arial, sans-serif; font-size: 10px; fill: black; font-weight: bold;">Europa</tspan></text><text x="697" y="350.5676691729323" text-anchor="end"><tspan alignment-baseline="middle" x="697" style="font-family: Arial, sans-serif; font-size: 10px; fill: black; font-weight: bold;">Austria-Ungheria</tspan></text><text x="3" y="18.225563909774436" text-anchor="start"><tspan alignment-baseline="middle" x="3" style="font-family: Arial, sans-serif; font-size: 10px; fill: black; font-weight: bold;">Lana 39011 BZ</tspan></text><text x="3" y="58.25939849624061" text-anchor="start"><tspan alignment-baseline="middle" x="3" style="font-family: Arial, sans-serif; font-size: 10px; fill: black; font-weight: bold;">Palù di Giovo</tspan></text><text x="697" y="415.6616541353384" text-anchor="end"><tspan alignment-baseline="middle" x="697" style="font-family: Arial, sans-serif; font-size: 10px; fill: black; font-weight: bold;">Austria</tspan></text><text x="3" y="90.31954887218046" text-anchor="start"><tspan alignment-baseline="middle" x="3" style="font-family: Arial, sans-serif; font-size: 10px; fill: black; font-weight: bold;">Baselga di Piné</tspan></text><text x="3" y="117.8233082706767" text-anchor="start"><tspan alignment-baseline="middle" x="3" style="font-family: Arial, sans-serif; font-size: 10px; fill: black; font-weight: bold;">Sover</tspan></text><text x="3" y="144.18796992481202" text-anchor="start"><tspan alignment-baseline="middle" x="3" style="font-family: Arial, sans-serif; font-size: 10px; fill: black; font-weight: bold;">Pergine Valsugana</tspan></text><text x="3" y="169.41353383458647" text-anchor="start"><tspan alignment-baseline="middle" x="3" style="font-family: Arial, sans-serif; font-size: 10px; fill: black; font-weight: bold;">Trento</tspan></text><text x="3" y="191.2218045112782" text-anchor="start"><tspan alignment-baseline="middle" x="3" style="font-family: Arial, sans-serif; font-size: 10px; fill: black; font-weight: bold;">Vigolo Vattaro</tspan></text><text x="3" y="209.61278195488723" text-anchor="start"><tspan alignment-baseline="middle" x="3" style="font-family: Arial, sans-serif; font-size: 10px; fill: black; font-weight: bold;">Segonzano</tspan></text><text x="3" y="226.86466165413535" text-anchor="start"><tspan alignment-baseline="middle" x="3" style="font-family: Arial, sans-serif; font-size: 10px; fill: black; font-weight: bold;">Civezzano</tspan></text><text x="3" y="242.97744360902257" text-anchor="start"><tspan alignment-baseline="middle" x="3" style="font-family: Arial, sans-serif; font-size: 10px; fill: black; font-weight: bold;">Miola</tspan></text><text x="3" y="257.9511278195489" text-anchor="start"><tspan alignment-baseline="middle" x="3" style="font-family: Arial, sans-serif; font-size: 10px; fill: black; font-weight: bold;">Fai della Paganella</tspan></text><text x="3" y="271.7857142857143" text-anchor="start"><tspan alignment-baseline="middle" x="3" style="font-family: Arial, sans-serif; font-size: 10px; fill: black; font-weight: bold;">Ischia</tspan></text><text x="3" y="285.6203007518797" text-anchor="start"><tspan alignment-baseline="middle" x="3" style="font-family: Arial, sans-serif; font-size: 10px; fill: black; font-weight: bold;">Lavis</tspan></text><text x="3" y="299.45488721804514" text-anchor="start"><tspan alignment-baseline="middle" x="3" style="font-family: Arial, sans-serif; font-size: 10px; fill: black; font-weight: bold;">Meano</tspan></text><text x="3" y="313.2894736842106" text-anchor="start"><tspan alignment-baseline="middle" x="3" style="font-family: Arial, sans-serif; font-size: 10px; fill: black; font-weight: bold;">Andalo</tspan></text><text x="697" y="439.7481203007519" text-anchor="end"><tspan alignment-baseline="middle" x="697" style="font-family: Arial, sans-serif; font-size: 10px; fill: black; font-weight: bold;">Germania</tspan></text><text x="3" y="325.9849624060151" text-anchor="start"><tspan alignment-baseline="middle" x="3" style="font-family: Arial, sans-serif; font-size: 10px; fill: black; font-weight: bold;">Grumo</tspan></text><text x="3" y="337.54135338345867" text-anchor="start"><tspan alignment-baseline="middle" x="3" style="font-family: Arial, sans-serif; font-size: 10px; fill: black; font-weight: bold;">Lasino</tspan></text><text x="3" y="349.09774436090225" text-anchor="start"><tspan alignment-baseline="middle" x="3" style="font-family: Arial, sans-serif; font-size: 10px; fill: black; font-weight: bold;">Mezzocorona</tspan></text><text x="3" y="360.65413533834584" text-anchor="start"><tspan alignment-baseline="middle" x="3" style="font-family: Arial, sans-serif; font-size: 10px; fill: black; font-weight: bold;">Ravina</tspan></text><text x="3" y="372.2105263157894" text-anchor="start"><tspan alignment-baseline="middle" x="3" style="font-family: Arial, sans-serif; font-size: 10px; fill: black; font-weight: bold;">Sopramonte</tspan></text><text x="3" y="383.766917293233" text-anchor="start"><tspan alignment-baseline="middle" x="3" style="font-family: Arial, sans-serif; font-size: 10px; fill: black; font-weight: bold;">Villazzano</tspan></text><text x="3" y="395.3233082706766" text-anchor="start"><tspan alignment-baseline="middle" x="3" style="font-family: Arial, sans-serif; font-size: 10px; fill: black; font-weight: bold;">Bedollo</tspan></text><text x="3" y="406.8796992481202" text-anchor="start"><tspan alignment-baseline="middle" x="3" style="font-family: Arial, sans-serif; font-size: 10px; fill: black; font-weight: bold;">Calavino</tspan></text><text x="3" y="418.43609022556376" text-anchor="start"><tspan alignment-baseline="middle" x="3" style="font-family: Arial, sans-serif; font-size: 10px; fill: black; font-weight: bold;">Toss</tspan></text><text x="3" y="429.99248120300734" text-anchor="start"><tspan alignment-baseline="middle" x="3" style="font-family: Arial, sans-serif; font-size: 10px; fill: black; font-weight: bold;">Vezzano</tspan></text><text x="697" y="452.4436090225564" text-anchor="end"><tspan alignment-baseline="middle" x="697" style="font-family: Arial, sans-serif; font-size: 10px; fill: black; font-weight: bold;">Italia</tspan></text><text x="697" y="462.8609022556391" text-anchor="end"><tspan alignment-baseline="middle" x="697" style="font-family: Arial, sans-serif; font-size: 10px; fill: black; font-weight: bold;">America</tspan></text><text x="3" y="440.40977443609006" text-anchor="start"><tspan alignment-baseline="middle" x="3" style="font-family: Arial, sans-serif; font-size: 10px; fill: black; font-weight: bold;">Albiano</tspan></text><text x="3" y="449.6879699248118" text-anchor="start"><tspan alignment-baseline="middle" x="3" style="font-family: Arial, sans-serif; font-size: 10px; fill: black; font-weight: bold;">Denno</tspan></text><text x="3" y="458.96616541353364" text-anchor="start"><tspan alignment-baseline="middle" x="3" style="font-family: Arial, sans-serif; font-size: 10px; fill: black; font-weight: bold;">Fierozzo</tspan></text><text x="3" y="468.2443609022554" text-anchor="start"><tspan alignment-baseline="middle" x="3" style="font-family: Arial, sans-serif; font-size: 10px; fill: black; font-weight: bold;">Povo</tspan></text><text x="3" y="477.52255639097723" text-anchor="start"><tspan alignment-baseline="middle" x="3" style="font-family: Arial, sans-serif; font-size: 10px; fill: black; font-weight: bold;">Campo Lomaso Comano Terme TN, Italia</tspan></text><text x="3" y="486.80075187969896" text-anchor="start"><tspan alignment-baseline="middle" x="3" style="font-family: Arial, sans-serif; font-size: 10px; fill: black; font-weight: bold;">Fornace</tspan></text><text x="3" y="496.0789473684208" text-anchor="start"><tspan alignment-baseline="middle" x="3" style="font-family: Arial, sans-serif; font-size: 10px; fill: black; font-weight: bold;">Fraveggio</tspan></text><text x="3" y="505.35714285714255" text-anchor="start"><tspan alignment-baseline="middle" x="3" style="font-family: Arial, sans-serif; font-size: 10px; fill: black; font-weight: bold;">Gardolo</tspan></text><text x="3" y="514.6353383458643" text-anchor="start"><tspan alignment-baseline="middle" x="3" style="font-family: Arial, sans-serif; font-size: 10px; fill: black; font-weight: bold;">Localita' Foss, 2, 38029 Vermiglio TN</tspan></text><text x="3" y="523.9135338345861" text-anchor="start"><tspan alignment-baseline="middle" x="3" style="font-family: Arial, sans-serif; font-size: 10px; fill: black; font-weight: bold;">Madrano</tspan></text><text x="3" y="533.191729323308" text-anchor="start"><tspan alignment-baseline="middle" x="3" style="font-family: Arial, sans-serif; font-size: 10px; fill: black; font-weight: bold;">Mezzolombardo</tspan></text><text x="3" y="542.4699248120298" text-anchor="start"><tspan alignment-baseline="middle" x="3" style="font-family: Arial, sans-serif; font-size: 10px; fill: black; font-weight: bold;">Nogaré</tspan></text><text x="3" y="551.7481203007517" text-anchor="start"><tspan alignment-baseline="middle" x="3" style="font-family: Arial, sans-serif; font-size: 10px; fill: black; font-weight: bold;">Romagnano</tspan></text><text x="3" y="561.0263157894735" text-anchor="start"><tspan alignment-baseline="middle" x="3" style="font-family: Arial, sans-serif; font-size: 10px; fill: black; font-weight: bold;">Santa Massenza</tspan></text><text x="3" y="570.3045112781954" text-anchor="start"><tspan alignment-baseline="middle" x="3" style="font-family: Arial, sans-serif; font-size: 10px; fill: black; font-weight: bold;">Tenna</tspan></text><text x="3" y="579.5827067669172" text-anchor="start"><tspan alignment-baseline="middle" x="3" style="font-family: Arial, sans-serif; font-size: 10px; fill: black; font-weight: bold;">Terlago</tspan></text><text x="3" y="588.8609022556391" text-anchor="start"><tspan alignment-baseline="middle" x="3" style="font-family: Arial, sans-serif; font-size: 10px; fill: black; font-weight: bold;">Verlago</tspan></text></g><g><text x="700.5" y="122" text-anchor="middle" style="font-family: Arial, sans-serif; font-size: 12px; fill: rgb(123, 123, 123); font-weight: bold;">N.1</text><text x="-0.5" y="-4" text-anchor="middle" style="font-family: Arial, sans-serif; font-size: 12px; fill: rgb(123, 123, 123); font-weight: bold;">luogo_long</text></g></g></svg>